<svg xmlns="http://www.w3.org/2000/svg" version="1.1" xmlns:xlink="http://www.w3.org/1999/xlink" xmlns:svgjs="http://svgjs.dev/svgjs" width="1000" height="320" viewBox="0 0 1000 320"><g transform="matrix(1,0,0,1,-0.6060481658465164,-0.26800622067386826)"><svg viewBox="0 0 396 127" data-background-color="#ffffff" preserveAspectRatio="xMidYMid meet" height="320" width="1000" xmlns="http://www.w3.org/2000/svg" xmlns:xlink="http://www.w3.org/1999/xlink"><g id="tight-bounds" transform="matrix(1,0,0,1,0.23999507367523165,0.10636496882995061)"><svg viewBox="0 0 395.52 126.78714471051128" height="126.78714471051128" width="395.52"><g><svg viewBox="0 0 608.5785991137845 195.08480712368436" height="126.78714471051128" width="395.52"><g transform="matrix(1,0,0,1,213.05859911378462,26.96179316977114)"><svg viewBox="0 0 395.52 141.16122078414207" height="141.16122078414207" width="395.52"><g id="textblocktransform"><svg viewBox="0 0 395.52 141.16122078414207" height="141.16122078414207" width="395.52" id="textblock"><g><svg viewBox="0 0 395.52 76.13561730163276" height="76.13561730163276" width="395.52"><g transform="matrix(1,0,0,1,0,0)"><svg width="395.52" viewBox="1.850000023841858 -32.70000076293945 174.5399932861328 33.60000228881836" height="76.13561730163276" data-palette-color="#085f63"><path d="M11 0.6Q8.7 0.6 6.75 0.18 4.8-0.25 3.53-0.75 2.25-1.25 2.25-1.3L2.25-1.3 1.85-2Q1.9-2.35 2.08-3.53 2.25-4.7 2.45-6.68 2.65-8.65 2.65-10.5L2.65-10.5 6.75-10.8Q6.75-8 7.25-6.5 7.75-5 8.93-4.38 10.1-3.75 12.3-3.75L12.3-3.75Q14.7-3.75 16.15-4.8 17.6-5.85 17.6-7.7L17.6-7.7Q17.6-9.35 16.07-10.5 14.55-11.65 11.35-13.2L11.35-13.2Q11.15-13.3 10.2-13.75L10.2-13.75Q6.45-15.55 4.35-17.55 2.25-19.55 2.25-22.75L2.25-22.75Q2.25-25.6 3.95-27.88 5.65-30.15 8.68-31.43 11.7-32.7 15.55-32.7L15.55-32.7Q17.75-32.7 19.63-32.4 21.5-32.1 22.63-31.78 23.75-31.45 24.05-31.35L24.05-31.35 24.4-30.7Q24.35-30.4 24.1-29.18 23.85-27.95 23.6-26.05 23.35-24.15 23.2-22.15L23.2-22.15 19.5-21.85 19.05-22.15Q19.05-22.3 19.1-22.78 19.15-23.25 19.15-23.95L19.15-23.95Q19.15-26.2 18.03-27.15 16.9-28.1 14.25-28.1L14.25-28.1Q12.1-28.1 10.73-27.08 9.35-26.05 9.35-24.45L9.35-24.45Q9.35-23.25 10.23-22.28 11.1-21.3 12.33-20.6 13.55-19.9 15.9-18.75L15.9-18.75Q18.7-17.4 20.53-16.3 22.35-15.2 23.6-13.5 24.85-11.8 24.85-9.45L24.85-9.45Q24.85-6.45 23.13-4.17 21.4-1.9 18.28-0.65 15.15 0.6 11 0.6L11 0.6ZM40.35 0.45Q35.45 0.45 33.07-1.6 30.7-3.65 30.7-7.9L30.7-7.9 30.7-20.15Q30.7-21.45 30.45-21.85 30.2-22.25 29.35-22.25L29.35-22.25 28.1-22.2 28-22.35 28.35-25.15Q28.95-25.15 30.72-25.1 32.5-25.05 34.55-25.05L34.55-25.05Q36.05-25.05 37.55-25.13 39.05-25.2 39.6-25.25L39.6-25.25 39.25-22.35Q38.05-22.25 37.57-21.8 37.1-21.35 37-20.35L37-20.35 36.75-9Q36.75-6.4 37.97-4.9 39.2-3.4 41.45-3.4L41.45-3.4Q46.1-3.4 46.1-8.05L46.1-8.05Q46.1-11 46.02-14.8 45.95-18.6 45.95-20.15L45.95-20.15Q45.95-21.4 45.7-21.83 45.45-22.25 44.7-22.25L44.7-22.25 43.4-22.2 43.3-22.35 43.7-25.15Q44.25-25.15 45.67-25.1 47.1-25.05 48.5-25.05L48.5-25.05Q49.9-25.05 51.52-25.13 53.15-25.2 53.65-25.25L53.65-25.25 53.4-22.4Q51.9-22.05 51.47-21.73 51.05-21.4 51.05-20.5L51.05-20.5 51.05-8.7Q51.05-4.25 48.3-1.9 45.55 0.45 40.35 0.45L40.35 0.45ZM76.75-10.15L76.65-20.6Q76.6-21.55 76.3-21.9 76-22.25 75.3-22.25L75.3-22.25 73.9-22.25 73.75-22.6 74-25.2Q74.6-25.15 76.25-25.1 77.9-25.05 79.6-25.05L79.6-25.05Q81.25-25.05 82.7-25.13 84.15-25.2 84.65-25.25L84.65-25.25 84.45-22.4Q83.1-22.2 82.52-21.65 81.95-21.1 81.9-19.95L81.9-19.95 81.3 0.4 76.35 0.9Q72.55-4.7 69.22-9.33 65.9-13.95 65-15.2L65-15.2 64.55-15.2 64.55-4.55Q64.55-3.5 64.87-3.1 65.2-2.7 66-2.7L66-2.7Q66.45-2.7 66.97-2.75 67.5-2.8 67.7-2.8L67.7-2.8 67.95-2.55 67.5 0.15Q66.9 0.15 65.25 0.08 63.6 0 62 0L62 0Q60.55 0 58.87 0.13 57.2 0.25 56.7 0.3L56.7 0.3 57.05-2.55Q58.3-2.7 58.85-3.25 59.4-3.8 59.45-5L59.45-5 60-19.9Q60-21.15 59.35-21.63 58.7-22.1 56.7-22.35L56.7-22.35 56.35-22.75 56.65-25.25Q57.1-25.2 58.7-25.13 60.3-25.05 61.65-25.05L61.65-25.05Q63.1-25.05 64.3-25.1 65.5-25.15 65.9-25.2L65.9-25.2Q69-20.35 72.17-15.88 75.35-11.4 76.3-10.15L76.3-10.15 76.75-10.15ZM107.39 0.6Q104.49 0.6 102.84-3L102.84-3 99.49-9.55 96.69-9.55 96.64-5.7Q96.64-4.35 96.84-3.78 97.04-3.2 97.62-3 98.19-2.8 99.59-2.75L99.59-2.75 99.79-2.5 99.34 0.15Q98.54 0.1 96.52 0.08 94.49 0.05 92.99 0.05L92.99 0.05Q91.39 0.05 89.69 0.15 87.99 0.25 87.49 0.3L87.49 0.3 87.84-2.6Q89.54-2.8 90.12-3.48 90.69-4.15 90.69-5.8L90.69-5.8 90.74-20.45Q90.74-21.5 90.47-21.88 90.19-22.25 89.49-22.25L89.49-22.25 88.04-22.2 87.74-22.55 88.14-25.1 93.44-25.05Q95.19-25.05 97.19-25.13 99.19-25.2 99.99-25.25L99.99-25.25Q104.94-25.25 107.54-23.5 110.14-21.75 110.14-18.4L110.14-18.4Q110.14-16.1 108.74-14.2 107.34-12.3 104.69-11L104.69-11 108.04-5.85Q109.24-4.1 110.29-3.3 111.34-2.5 112.54-2.5L112.54-2.5 112.89-2.05 112.54 0.2 107.39 0.6ZM100.39-13.05Q103.74-14.25 103.74-17.65L103.74-17.65Q103.74-19.65 102.29-20.63 100.84-21.6 97.84-21.6L97.84-21.6Q97.44-21.6 97.32-21.43 97.19-21.25 97.14-20.7L97.14-20.7Q96.84-16.6 96.84-13.45L96.84-13.45 100.39-13.05ZM115.19 0.3L115.49-2.45Q117.29-2.8 117.84-3.43 118.39-4.05 118.39-5.7L118.39-5.7 118.44-20.25Q118.44-21.45 118.14-21.85 117.84-22.25 116.94-22.25L116.94-22.25 115.59-22.25 115.39-22.65 115.64-25.1 121.59-25.05Q122.69-25.05 124.84-25.15 126.99-25.25 127.69-25.3L127.69-25.3 127.44-22.45Q125.89-22.25 125.42-21.85 124.94-21.45 124.84-20.35L124.84-20.35Q124.34-13 124.34-5.4L124.34-5.4Q124.34-3.8 124.64-3.28 124.94-2.75 125.89-2.75L125.89-2.75Q126.54-2.75 126.97-2.8 127.39-2.85 127.54-2.85L127.54-2.85 127.79-2.55 127.44 0.1Q126.74 0.1 124.82 0.05 122.89 0 121.14 0L121.14 0Q119.69 0 117.74 0.13 115.79 0.25 115.19 0.3L115.19 0.3ZM138.94 0.45Q136.99 0.45 135.34 0.13 133.69-0.2 132.74-0.58 131.79-0.95 131.54-1.05L131.54-1.05 131.14-1.65Q131.24-2.25 131.54-4.3 131.84-6.35 131.89-8.2L131.89-8.2 135.64-8.5Q135.64-5.6 136.59-4.53 137.54-3.45 139.99-3.45L139.99-3.45Q141.84-3.45 142.91-4.15 143.99-4.85 143.99-6.05L143.99-6.05Q143.99-7.25 142.79-8.1 141.59-8.95 139.04-10.05L139.04-10.05 137.99-10.5Q134.94-11.85 133.21-13.45 131.49-15.05 131.49-17.6L131.49-17.6Q131.49-19.9 132.91-21.7 134.34-23.5 136.91-24.5 139.49-25.5 142.79-25.5L142.79-25.5Q144.64-25.5 146.24-25.28 147.84-25.05 148.79-24.8 149.74-24.55 149.99-24.45L149.99-24.45 150.34-23.85Q150.24-23.3 149.89-21.33 149.54-19.35 149.34-17.15L149.34-17.15 145.89-16.9 145.49-17.15 145.54-18.35Q145.54-19.95 144.64-20.68 143.74-21.4 141.74-21.4L141.74-21.4Q140.14-21.4 139.09-20.68 138.04-19.95 138.04-18.85L138.04-18.85Q138.04-17.6 139.34-16.78 140.64-15.95 143.44-14.75L143.44-14.75Q145.74-13.75 147.19-12.9 148.64-12.05 149.66-10.7 150.69-9.35 150.69-7.45L150.69-7.45Q150.69-3.85 147.49-1.7 144.29 0.45 138.94 0.45L138.94 0.45ZM154.44 0.4L154.74-2.5Q156.44-2.7 157.04-3.43 157.64-4.15 157.64-5.9L157.64-5.9 157.69-20.15Q157.69-21.4 157.44-21.83 157.19-22.25 156.39-22.25L156.39-22.25 155.19-22.2 154.89-22.6 155.24-25.15Q156.04-25.15 158.31-25.1 160.59-25.05 163.19-25.05L163.19-25.05Q172.04-25.05 175.79-25.5L175.79-25.5 176.14-25.05Q175.99-24.4 175.66-22.23 175.34-20.05 175.19-17.75L175.19-17.75 171.04-17.5Q171.04-17.65 171.09-18.13 171.14-18.6 171.14-19.05L171.14-19.05Q171.14-20.15 170.79-20.6 170.44-21.05 169.44-21.23 168.44-21.4 166.14-21.4L166.14-21.4Q164.79-21.4 164.46-21.2 164.14-21 164.09-20.2L164.09-20.2 163.84-14.55 167.54-14.55Q168.44-14.55 170.09-14.68 171.74-14.8 172.29-14.85L172.29-14.85 172.69-14.4 172.09-10.8Q171.54-10.8 170.01-10.85 168.49-10.9 166.79-10.9L166.79-10.9Q165.44-10.9 163.69-10.65L163.69-10.65Q163.59-8.25 163.59-5.75L163.59-5.75Q163.59-4.65 163.74-4.2 163.89-3.75 164.39-3.58 164.89-3.4 166.09-3.4L166.09-3.4Q168.59-3.4 169.74-3.73 170.89-4.05 171.39-4.93 171.89-5.8 172.19-7.8L172.19-7.8 175.99-8.1 176.39-7.65Q176.24-7.05 175.86-4.85 175.49-2.65 175.24-0.2L175.24-0.2 174.79 0.25Q173.54 0.2 169.36 0.1 165.19 0 161.84 0L161.84 0Q159.49 0 157.29 0.18 155.09 0.35 154.44 0.4L154.44 0.4Z" opacity="1" transform="matrix(1,0,0,1,0,0)" fill="#085f63" class="undefined-text-0" data-fill-palette-color="primary" id="text-0"></path></svg></g></svg></g><g transform="matrix(1,0,0,1,0,94.10940929173302)"><svg viewBox="0 0 395.52 47.051811492409044" height="47.051811492409044" width="395.52"><g transform="matrix(1,0,0,1,0,0)"><svg width="395.52" viewBox="3 -37.5 319.42999267578125 38" height="47.051811492409044" data-palette-color="#49beb7"><path d="M17.85 0L3 0 3-0.8 7.05-2.8 7.05-30.2 3-32.2 3-33 18.2-33Q23.8-33 27.75-31.05 31.7-29.1 33.77-25.7 35.85-22.3 35.85-18L35.85-18Q35.85-14.1 34.5-10.8 33.15-7.5 30.73-5.1 28.3-2.7 25.03-1.35 21.75 0 17.85 0L17.85 0ZM16.85-30.25L16.85-30.25 12.3-30.25 12.3-2.75 17.6-2.75Q21.6-2.75 24.45-4.42 27.3-6.1 28.85-9.18 30.4-12.25 30.4-16.45L30.4-16.45Q30.4-20.6 28.83-23.73 27.25-26.85 24.23-28.55 21.2-30.25 16.85-30.25ZM54.07 0.5L54.07 0.5Q49.17 0.5 46.32-2.45 43.47-5.4 43.47-10.3L43.47-10.3Q43.47-14 44.99-16.9 46.52-19.8 49.04-21.43 51.57-23.05 54.52-23.05L54.52-23.05Q58.52-23.05 60.77-20.33 63.02-17.6 63.07-12.5L63.07-12.5 62.82-12.25 48.07-12.25Q48.12-9.95 48.94-8 49.77-6.05 51.59-4.85 53.42-3.65 56.52-3.65L56.52-3.65Q59.37-3.65 62.97-5.55L62.97-5.55 63.12-5.55 63.12-4.95Q61.92-2.65 59.57-1.07 57.22 0.5 54.07 0.5ZM53.62-20.85L53.62-20.85Q51.42-20.85 49.99-19.2 48.57-17.55 48.17-14.55L48.17-14.55 58.82-14.55Q58.32-17.95 57.02-19.4 55.72-20.85 53.62-20.85ZM80.94 0L69.74 0 69.74-0.8 72.94-2.4 72.94-17.35 69.89-19.85 69.89-20.25 76.79-23.05 77.14-23.05 77.59-19.35 77.84-19.35Q79.74-21.2 81.49-22.13 83.24-23.05 85.44-23.05L85.44-23.05Q88.34-23.05 90.26-21.58 92.19-20.1 92.19-17.15L92.19-17.15 92.19-2.4 95.34-0.8 95.34 0 84.14 0 84.14-0.8 87.44-2.4 87.44-14.85Q87.44-17 86.14-18.07 84.84-19.15 82.79-19.15L82.79-19.15Q81.54-19.15 80.04-18.75 78.54-18.35 77.64-17.5L77.64-17.5 77.64-2.4 80.94-0.8 80.94 0ZM109.66 0.5L109.66 0.5Q107.26 0.5 105.58-0.8 103.91-2.1 103.91-4.45L103.91-4.45 103.91-20.25 99.91-20.25 99.91-20.65 104.26-22.55 108.16-28.05 108.61-28.05 108.61-22.55 115.26-22.55 115.26-20.25 108.61-20.25 108.61-5.4Q108.61-4.1 109.73-3.5 110.86-2.9 112.41-2.9L112.41-2.9Q113.36-2.9 114.16-3 114.96-3.1 115.61-3.25L115.61-3.25 115.76-3.25 115.76-2.65Q115.16-1.5 113.58-0.5 112.01 0.5 109.66 0.5ZM127.03 0.5L127.03 0.5Q124.63 0.5 123.05-0.93 121.48-2.35 121.48-4.85L121.48-4.85Q121.48-7.3 123.25-9.08 125.03-10.85 129.43-11.9L129.43-11.9 134.18-13 134.18-16.5Q134.18-18.3 132.85-19.5 131.53-20.7 129.78-20.7L129.78-20.7Q127.93-20.7 127.2-19.75 126.48-18.8 126.48-17.15L126.48-17.15 126.48-15.55 126.23-15.3 123.48-15.3Q122.73-15.3 122.45-15.58 122.18-15.85 122.18-16.75L122.18-16.75Q122.18-17.85 122.85-18.98 123.53-20.1 124.93-20.95L124.93-20.95Q126.43-21.9 127.98-22.48 129.53-23.05 131.28-23.05L131.28-23.05Q133.18-23.05 134.95-22.53 136.73-22 137.83-20.75 138.93-19.5 138.93-17.4L138.93-17.4 138.93-3.45Q139.28-3.1 139.9-2.85 140.53-2.6 141.63-2.6L141.63-2.6 143.38-2.6 143.58-2.5 143.58-2.2Q142.98-1.15 141.75-0.33 140.53 0.5 138.78 0.5L138.78 0.5Q137.08 0.5 136.03-0.33 134.98-1.15 134.53-2.6L134.53-2.6 134.18-2.6Q132.88-1.3 131-0.4 129.13 0.5 127.03 0.5ZM126.03-5.95L126.03-5.95Q126.03-2.85 129.68-2.85L129.68-2.85Q130.78-2.85 131.8-3.08 132.83-3.3 134.18-3.85L134.18-3.85 134.18-11.25Q130.58-10.55 128.83-9.75 127.08-8.95 126.55-8.03 126.03-7.1 126.03-5.95ZM159.15 0L148.15 0 148.15-0.8 151.3-2.4 151.3-31.8 148.3-34.35 148.3-34.75 155.65-37.5 156.05-37.5 156.05-2.4 159.15-0.8 159.15 0ZM197.78 0.5L197.78 0.5Q192.63 0.5 188.88-1.6 185.13-3.7 183.08-7.35 181.03-11 181.03-15.65L181.03-15.65Q181.03-19.25 182.43-22.45 183.83-25.65 186.26-28.15 188.68-30.65 191.83-32.08 194.98-33.5 198.53-33.5L198.53-33.5Q201.08-33.5 202.83-33.18 204.58-32.85 205.96-32.33 207.33-31.8 208.73-31.1L208.73-31.1 209.03-22.2 208.13-22.2 204.68-28.7Q202.98-29.9 201.61-30.45 200.23-31 198.53-31L198.53-31Q195.08-31 192.33-29.2 189.58-27.4 188.01-24.23 186.43-21.05 186.43-16.9L186.43-16.9Q186.43-12.25 187.96-8.93 189.48-5.6 192.08-3.85 194.68-2.1 197.83-2.1L197.83-2.1Q200.43-2.1 202.21-2.8 203.98-3.5 205.38-4.45L205.38-4.45 208.73-10.05 209.58-10.05 208.98-2Q206.78-0.9 204.28-0.2 201.78 0.5 197.78 0.5ZM229 0L218 0 218-0.8 221.15-2.4 221.15-31.8 218.15-34.35 218.15-34.75 225.5-37.5 225.9-37.5 225.9-2.4 229-0.8 229 0ZM240.92-28.85L240.92-28.85Q239.57-28.85 238.67-29.75 237.77-30.65 237.77-32L237.77-32Q237.77-33.4 238.67-34.27 239.57-35.15 240.92-35.15L240.92-35.15Q242.27-35.15 243.17-34.27 244.07-33.4 244.07-32L244.07-32Q244.07-30.65 243.17-29.75 242.27-28.85 240.92-28.85ZM246.52 0L235.52 0 235.52-0.8 238.72-2.4 238.72-17.35 235.67-19.9 235.67-20.3 243.07-23.05 243.42-23.05 243.42-2.4 246.52-0.8 246.52 0ZM264.44 0L253.24 0 253.24-0.8 256.44-2.4 256.44-17.35 253.39-19.85 253.39-20.25 260.29-23.05 260.64-23.05 261.09-19.35 261.34-19.35Q263.24-21.2 264.99-22.13 266.74-23.05 268.94-23.05L268.94-23.05Q271.84-23.05 273.77-21.58 275.69-20.1 275.69-17.15L275.69-17.15 275.69-2.4 278.84-0.8 278.84 0 267.64 0 267.64-0.8 270.94-2.4 270.94-14.85Q270.94-17 269.64-18.07 268.34-19.15 266.29-19.15L266.29-19.15Q265.04-19.15 263.54-18.75 262.04-18.35 261.14-17.5L261.14-17.5 261.14-2.4 264.44-0.8 264.44 0ZM290.46-28.85L290.46-28.85Q289.11-28.85 288.21-29.75 287.31-30.65 287.31-32L287.31-32Q287.31-33.4 288.21-34.27 289.11-35.15 290.46-35.15L290.46-35.15Q291.81-35.15 292.71-34.27 293.61-33.4 293.61-32L293.61-32Q293.61-30.65 292.71-29.75 291.81-28.85 290.46-28.85ZM296.06 0L285.06 0 285.06-0.8 288.26-2.4 288.26-17.35 285.21-19.9 285.21-20.3 292.61-23.05 292.96-23.05 292.96-2.4 296.06-0.8 296.06 0ZM313.48 0.5L313.48 0.5Q308.63 0.5 305.78-2.45 302.93-5.4 302.93-10.3L302.93-10.3Q302.93-14 304.45-16.9 305.98-19.8 308.63-21.43 311.28-23.05 314.68-23.05L314.68-23.05Q316.78-23.05 318.68-22.38 320.58-21.7 321.58-20.6L321.58-20.6Q322.33-19.7 322.33-19.1L322.33-19.1Q322.33-18.7 322.2-18.48 322.08-18.25 321.73-17.9L321.73-17.9 319.68-16.25 319.33-16.25 317.63-18.55Q316.88-19.6 315.83-20.23 314.78-20.85 313.18-20.85L313.18-20.85Q310.53-20.85 309.03-18.65 307.53-16.45 307.53-12.6L307.53-12.6Q307.53-10.25 308.3-8.2 309.08-6.15 310.9-4.9 312.73-3.65 315.88-3.65L315.88-3.65Q317.28-3.65 318.88-4.13 320.48-4.6 322.28-5.55L322.28-5.55 322.43-5.55 322.43-4.95Q321.28-2.65 318.93-1.07 316.58 0.5 313.48 0.5Z" opacity="1" transform="matrix(1,0,0,1,0,0)" fill="#49beb7" class="undefined-text-1" data-fill-palette-color="secondary" id="text-1"></path></svg></g></svg></g></svg></g></svg></g><g><svg viewBox="0 0 195.08480712368436 195.08480712368436" height="195.08480712368436" width="195.08480712368436"><g><svg></svg></g><g id="icon-0"><svg viewBox="0 0 195.08480712368436 195.08480712368436" height="195.08480712368436" width="195.08480712368436"><g><path xmlns="http://www.w3.org/2000/svg" d="M58.525 195.085c-32.323 0-58.525-26.203-58.525-58.526v-78.034c0-32.323 26.203-58.525 58.525-58.525h78.034c32.323 0 58.525 26.203 58.526 58.525v78.034c0 32.323-26.203 58.525-58.526 58.526z" fill="#49beb7" fill-rule="nonzero" stroke="none" stroke-width="1" stroke-linecap="butt" stroke-linejoin="miter" stroke-miterlimit="10" stroke-dasharray="" stroke-dashoffset="0" font-family="none" font-weight="none" font-size="none" text-anchor="none" style="mix-blend-mode: normal" data-fill-palette-color="accent"></path></g><g transform="matrix(1,0,0,1,59.655542761842185,48.05167483933895)"><svg viewBox="0 0 75.77372159999999 98.98145744500646" height="98.98145744500646" width="75.77372159999999"><g><svg xmlns="http://www.w3.org/2000/svg" xmlns:xlink="http://www.w3.org/1999/xlink" version="1.1" x="0" y="0" viewBox="14.943233489990234 -5.960464477539063e-8 98.06498718261719 128.1000213623047" style="enable-background:new 0 0 128 128;" xml:space="preserve" width="75.77372159999999" height="98.98145744500646" class="icon-s-0" data-fill-palette-color="quaternary" id="s-0"><path d="M95.7 24H90v-5.7c0-2.4-1.6-4.3-3.5-4.3h-5c-1.9 0-3.5 1.9-3.5 4.3V24h-6.1c-2.1 0-3.9 1.6-3.9 3.5v4c0 1.9 1.7 3.5 3.9 3.5H78v7.1c0 2.1 1.6 3.9 3.5 3.9h5c1.9 0 3.5-1.7 3.5-3.9V35h5.7c2.4 0 4.3-1.6 4.3-3.5v-4C100 25.6 98.1 24 95.7 24zM98 31.5c0 0.7-0.9 1.5-2.3 1.5H88v9.1c0 1-0.7 1.9-1.5 1.9h-5c-0.8 0-1.5-0.8-1.5-1.9V33h-8.1c-1 0-1.9-0.7-1.9-1.5v-4c0-0.8 0.9-1.5 1.9-1.5H80v-7.7c0-1.4 0.8-2.3 1.5-2.3h5c0.7 0 1.5 0.9 1.5 2.3V26h7.7c1.4 0 2.3 0.8 2.3 1.5V31.5z" fill="#ffffff" data-fill-palette-color="quaternary"></path><path d="M109 10.7c-2.4-4-6.7-7.2-10.9-9.2C95.8 0.5 93.2 0 90.6 0c-4.8 0-9.8 1.6-13.8 3.7-3.9 2.1-7.9 3-11.9 3-5.1 0-10.1-1.5-15-3.8-2.3-1.1-4.9-2.3-7.4-2.6-1.3-0.2-2.7-0.3-4.2-0.3-2.9 0-6 0.4-8.4 1.5-4.2 2-8.4 5.2-10.9 9.2-8.3 13.4-2.5 31.3 5.2 43.4 2.5 3.8 2.7 7.8 2.5 12.2-2.4 52 16.5 61.5 16.5 61.5 0.3 0.1 0.6 0.2 0.9 0.2 2.8 0 3-6.1 3-6.1 0.2-6 0.5-11.9 1.6-17.8 1.1-6.1 4-27.1 12.7-29.2 1.8-0.4 3.2-0.4 5 0 8.7 2 11.7 23.1 12.8 29.3 1.1 5.9 1.5 11.8 1.6 17.8 0 0 0.2 6.1 3 6.1 0.3 0 0.6-0.1 0.9-0.2 0 0 18.9-9.5 16.5-61.5-0.2-4.4 0-8.4 2.5-12.2C111.5 42.1 117.2 24.1 109 10.7zM100.4 52c-3.2 5-3.3 10.2-3.1 14.6 1.7 37.6-8 51.7-12.3 56 0-0.3-0.1-0.6-0.1-0.8-0.4-8.8-1.3-17.6-3.1-26.2-1.8-8.5-4-22.3-14.4-24.7-2.4-0.5-4.5-0.5-6.8 0-7.2 1.8-10.4 9.6-12.2 16-2.6 9.5-4.4 19.2-5 29.1-0.1 1.9-0.2 3.8-0.2 5.7 0 0.3 0 0.6-0.1 0.8-4.4-4.4-14.1-18.5-12.3-56 0.2-4.4 0.1-9.5-3.1-14.6-7.2-11.3-12.4-27.5-5.2-39.1 1.8-2.9 5.2-5.8 9.2-7.7 1.5-0.7 3.9-1.1 6.7-1.1 1.2 0 2.5 0.1 3.7 0.2 1.9 0.3 4.1 1.3 6.2 2.3 5.8 2.8 11.4 4.2 16.7 4.2 4.9 0 9.5-1.2 13.8-3.5 3.8-2 8.1-3.2 11.8-3.2 2.2 0 4.2 0.4 5.8 1.2 3.9 1.9 7.3 4.7 9.2 7.7C112.7 24.5 107.6 40.7 100.4 52z" fill="#ffffff" data-fill-palette-color="quaternary"></path><path d="M40.6 14.1c-0.2 0.1-16.4 7.6-8.3 26.3 0.2 0.4 0.5 0.6 0.9 0.6 0.1 0 0.3 0 0.4-0.1 0.5-0.2 0.7-0.8 0.5-1.3-7.3-16.9 6.7-23.4 7.3-23.7 0.5-0.2 0.7-0.8 0.5-1.3C41.7 14.1 41.1 13.9 40.6 14.1z" fill="#ffffff" data-fill-palette-color="quaternary"></path></svg></g></svg></g></svg></g></svg></g></svg></g><defs></defs></svg><rect width="395.52" height="126.78714471051128" fill="none" stroke="none" visibility="hidden"></rect></g></svg></g></svg>