<svg xmlns="http://www.w3.org/2000/svg" version="1.1" xmlns:xlink="http://www.w3.org/1999/xlink" xmlns:svgjs="http://svgjs.dev/svgjs" width="128" height="128" viewBox="0 0 128 128"><g transform="matrix(0.6204819277108434,0,0,0.6204819277108434,24.340295761407496,12.760752631578946)"><svg viewBox="0 0 73 95" data-background-color="#ffffff" preserveAspectRatio="xMidYMid meet" height="166" width="128" xmlns="http://www.w3.org/2000/svg" xmlns:xlink="http://www.w3.org/1999/xlink"><g id="tight-bounds" transform="matrix(1,0,0,1,-0.04700425035923672,-0.24049999999999727)"><svg viewBox="0 0 73.09400850071849 95.481" height="95.481" width="73.09400850071849"><g><svg viewBox="0 0 73.09400850071849 95.481" height="95.481" width="73.09400850071849"><g><svg viewBox="0 0 73.09400850071849 95.481" height="95.481" width="73.09400850071849"><g id="textblocktransform"><svg viewBox="0 0 73.09400850071849 95.481" height="95.481" width="73.09400850071849" id="textblock"><g><svg viewBox="0 0 73.09400850071849 95.481" height="95.481" width="73.09400850071849"><g><svg viewBox="0 0 73.09400850071849 95.481" height="95.481" width="73.09400850071849"><g><svg xmlns="http://www.w3.org/2000/svg" xmlns:xlink="http://www.w3.org/1999/xlink" version="1.1" x="0" y="0" viewBox="14.943240776239007 0 98.06498139883368 128.1" style="enable-background:new 0 0 128 128;" xml:space="preserve" width="73.09400850071849" height="95.481" class="icon-icon-0" data-fill-palette-color="accent" id="icon-0"><path d="M95.7 24H90v-5.7c0-2.4-1.6-4.3-3.5-4.3h-5c-1.9 0-3.5 1.9-3.5 4.3V24h-6.1c-2.1 0-3.9 1.6-3.9 3.5v4c0 1.9 1.7 3.5 3.9 3.5H78v7.1c0 2.1 1.6 3.9 3.5 3.9h5c1.9 0 3.5-1.7 3.5-3.9V35h5.7c2.4 0 4.3-1.6 4.3-3.5v-4C100 25.6 98.1 24 95.7 24zM98 31.5c0 0.7-0.9 1.5-2.3 1.5H88v9.1c0 1-0.7 1.9-1.5 1.9h-5c-0.8 0-1.5-0.8-1.5-1.9V33h-8.1c-1 0-1.9-0.7-1.9-1.5v-4c0-0.8 0.9-1.5 1.9-1.5H80v-7.7c0-1.4 0.8-2.3 1.5-2.3h5c0.7 0 1.5 0.9 1.5 2.3V26h7.7c1.4 0 2.3 0.8 2.3 1.5V31.5z" fill="#49beb7" data-fill-palette-color="accent"></path><path d="M109 10.7c-2.4-4-6.7-7.2-10.9-9.2C95.8 0.5 93.2 0 90.6 0c-4.8 0-9.8 1.6-13.8 3.7-3.9 2.1-7.9 3-11.9 3-5.1 0-10.1-1.5-15-3.8-2.3-1.1-4.9-2.3-7.4-2.6-1.3-0.2-2.7-0.3-4.2-0.3-2.9 0-6 0.4-8.4 1.5-4.2 2-8.4 5.2-10.9 9.2-8.3 13.4-2.5 31.3 5.2 43.4 2.5 3.8 2.7 7.8 2.5 12.2-2.4 52 16.5 61.5 16.5 61.5 0.3 0.1 0.6 0.2 0.9 0.2 2.8 0 3-6.1 3-6.1 0.2-6 0.5-11.9 1.6-17.8 1.1-6.1 4-27.1 12.7-29.2 1.8-0.4 3.2-0.4 5 0 8.7 2 11.7 23.1 12.8 29.3 1.1 5.9 1.5 11.8 1.6 17.8 0 0 0.2 6.1 3 6.1 0.3 0 0.6-0.1 0.9-0.2 0 0 18.9-9.5 16.5-61.5-0.2-4.4 0-8.4 2.5-12.2C111.5 42.1 117.2 24.1 109 10.7zM100.4 52c-3.2 5-3.3 10.2-3.1 14.6 1.7 37.6-8 51.7-12.3 56 0-0.3-0.1-0.6-0.1-0.8-0.4-8.8-1.3-17.6-3.1-26.2-1.8-8.5-4-22.3-14.4-24.7-2.4-0.5-4.5-0.5-6.8 0-7.2 1.8-10.4 9.6-12.2 16-2.6 9.5-4.4 19.2-5 29.1-0.1 1.9-0.2 3.8-0.2 5.7 0 0.3 0 0.6-0.1 0.8-4.4-4.4-14.1-18.5-12.3-56 0.2-4.4 0.1-9.5-3.1-14.6-7.2-11.3-12.4-27.5-5.2-39.1 1.8-2.9 5.2-5.8 9.2-7.7 1.5-0.7 3.9-1.1 6.7-1.1 1.2 0 2.5 0.1 3.7 0.2 1.9 0.3 4.1 1.3 6.2 2.3 5.8 2.8 11.4 4.2 16.7 4.2 4.9 0 9.5-1.2 13.8-3.5 3.8-2 8.1-3.2 11.8-3.2 2.2 0 4.2 0.4 5.8 1.2 3.9 1.9 7.3 4.7 9.2 7.7C112.7 24.5 107.6 40.7 100.4 52z" fill="#49beb7" data-fill-palette-color="accent"></path><path d="M40.6 14.1c-0.2 0.1-16.4 7.6-8.3 26.3 0.2 0.4 0.5 0.6 0.9 0.6 0.1 0 0.3 0 0.4-0.1 0.5-0.2 0.7-0.8 0.5-1.3-7.3-16.9 6.7-23.4 7.3-23.7 0.5-0.2 0.7-0.8 0.5-1.3C41.7 14.1 41.1 13.9 40.6 14.1z" fill="#49beb7" data-fill-palette-color="accent"></path></svg></g></svg></g></svg></g></svg></g></svg></g></svg></g><defs></defs></svg><rect width="73.09400850071849" height="95.481" fill="none" stroke="none" visibility="hidden"></rect></g></svg></g></svg>