<svg xmlns="http://www.w3.org/2000/svg" version="1.1" xmlns:xlink="http://www.w3.org/1999/xlink" xmlns:svgjs="http://svgjs.dev/svgjs" width="1000" height="335" viewBox="0 0 1000 335"><g transform="matrix(1,0,0,1,-0.6060606060603391,-0.49114498277478447)"><svg viewBox="0 0 396 133" data-background-color="#ffffff" preserveAspectRatio="xMidYMid meet" height="335" width="1000" xmlns="http://www.w3.org/2000/svg" xmlns:xlink="http://www.w3.org/1999/xlink"><g id="tight-bounds" transform="matrix(1,0,0,1,0.2399999999998954,0.19499188868371675)"><svg viewBox="0 0 395.52 132.6100162226326" height="132.6100162226326" width="395.52"><g><svg viewBox="0 0 624.2870626312356 209.31107782945944" height="132.6100162226326" width="395.52"><g transform="matrix(1,0,0,1,228.76706263123566,28.927942015504172)"><svg viewBox="0 0 395.52 151.4551937984511" height="151.4551937984511" width="395.52"><g id="textblocktransform"><svg viewBox="0 0 395.52 151.4551937984511" height="151.4551937984511" width="395.52" id="textblock"><g><svg viewBox="0 0 395.52 82.41407344150299" height="82.41407344150299" width="395.52"><g transform="matrix(1,0,0,1,0,0)"><svg width="395.52" viewBox="2.15 -36 175.64 36.6" height="82.41407344150299" data-palette-color="#085f63"><path d="M15.35 0.6L15.35 0.6Q11.5 0.6 8.55-0.73 5.6-2.05 3.9-4.53 2.2-7 2.15-10.55L2.15-10.55 8.9-10.55Q9-8.1 10.68-6.43 12.35-4.75 15.3-4.75L15.3-4.75Q17.85-4.75 19.35-5.98 20.85-7.2 20.85-9.25L20.85-9.25Q20.85-11.4 19.53-12.6 18.2-13.8 16-14.55 13.8-15.3 11.3-16.15L11.3-16.15Q7.25-17.55 5.13-19.75 3-21.95 3-25.6L3-25.6Q2.95-28.7 4.48-30.93 6-33.15 8.65-34.38 11.3-35.6 14.75-35.6L14.75-35.6Q18.25-35.6 20.93-34.35 23.6-33.1 25.13-30.85 26.65-28.6 26.75-25.5L26.75-25.5 19.9-25.5Q19.85-27.35 18.48-28.78 17.1-30.2 14.65-30.2L14.65-30.2Q12.55-30.25 11.13-29.18 9.7-28.1 9.7-26.05L9.7-26.05Q9.7-24.3 10.8-23.28 11.9-22.25 13.8-21.55 15.7-20.85 18.15-20.05L18.15-20.05Q20.75-19.15 22.9-17.95 25.05-16.75 26.35-14.78 27.65-12.8 27.65-9.7L27.65-9.7Q27.65-6.95 26.25-4.6 24.85-2.25 22.1-0.83 19.35 0.6 15.35 0.6ZM42.4 0.6L42.4 0.6Q37.75 0.6 35.22-2.3 32.7-5.2 32.7-10.8L32.7-10.8 32.7-24.8 39.05-24.8 39.05-11.4Q39.05-8.2 40.35-6.5 41.65-4.8 44.45-4.8L44.45-4.8Q47.1-4.8 48.82-6.7 50.55-8.6 50.55-12L50.55-12 50.55-24.8 56.95-24.8 56.95 0 51.3 0 50.8-4.2Q49.65-2 47.47-0.7 45.3 0.6 42.4 0.6ZM69.9 0L63.5 0 63.5-24.8 69.15-24.8 69.65-20.6Q70.8-22.8 72.97-24.1 75.15-25.4 78.09-25.4L78.09-25.4Q82.7-25.4 85.25-22.5 87.8-19.6 87.8-14L87.8-14 87.8 0 81.4 0 81.4-13.4Q81.4-16.6 80.09-18.3 78.8-20 76.05-20L76.05-20Q73.34-20 71.62-18.1 69.9-16.2 69.9-12.8L69.9-12.8 69.9 0ZM100.29 0L93.89 0 93.89-24.8 99.59-24.8 100.19-20.15Q101.54-22.55 103.87-23.98 106.19-25.4 109.34-25.4L109.34-25.4 109.34-18.65 107.54-18.65Q105.44-18.65 103.79-18 102.14-17.35 101.22-15.75 100.29-14.15 100.29-11.3L100.29-11.3 100.29 0ZM117.14-28.65L117.14-28.65Q115.39-28.65 114.27-29.7 113.14-30.75 113.14-32.35L113.14-32.35Q113.14-33.95 114.27-34.98 115.39-36 117.14-36L117.14-36Q118.89-36 120.02-34.98 121.14-33.95 121.14-32.35L121.14-32.35Q121.14-30.75 120.02-29.7 118.89-28.65 117.14-28.65ZM120.34 0L113.94 0 113.94-24.8 120.34-24.8 120.34 0ZM137.29 0.6L137.29 0.6Q133.99 0.6 131.49-0.48 128.99-1.55 127.49-3.45 125.99-5.35 125.69-7.85L125.69-7.85 132.14-7.85Q132.44-6.4 133.76-5.38 135.09-4.35 137.19-4.35L137.19-4.35Q139.29-4.35 140.26-5.2 141.24-6.05 141.24-7.15L141.24-7.15Q141.24-8.75 139.84-9.33 138.44-9.9 135.94-10.45L135.94-10.45Q134.34-10.8 132.69-11.3 131.04-11.8 129.66-12.58 128.29-13.35 127.44-14.58 126.59-15.8 126.59-17.6L126.59-17.6Q126.59-20.9 129.21-23.15 131.84-25.4 136.59-25.4L136.59-25.4Q140.99-25.4 143.61-23.35 146.24-21.3 146.74-17.7L146.74-17.7 140.69-17.7Q140.14-20.45 136.54-20.45L136.54-20.45Q134.74-20.45 133.76-19.75 132.79-19.05 132.79-18L132.79-18Q132.79-16.9 134.24-16.25 135.69-15.6 138.09-15.05L138.09-15.05Q140.69-14.45 142.86-13.73 145.04-13 146.34-11.58 147.64-10.15 147.64-7.5L147.64-7.5Q147.69-5.2 146.44-3.35 145.19-1.5 142.84-0.45 140.49 0.6 137.29 0.6ZM165.34 0.6L165.34 0.6Q161.59 0.6 158.69-1 155.79-2.6 154.14-5.5 152.49-8.4 152.49-12.2L152.49-12.2Q152.49-16.05 154.11-19.05 155.74-22.05 158.61-23.73 161.49-25.4 165.39-25.4L165.39-25.4Q169.04-25.4 171.84-23.8 174.64-22.2 176.21-19.43 177.79-16.65 177.79-13.25L177.79-13.25Q177.79-12.7 177.76-12.1 177.74-11.5 177.69-10.85L177.69-10.85 158.84-10.85Q159.04-7.95 160.86-6.3 162.69-4.65 165.29-4.65L165.29-4.65Q167.24-4.65 168.56-5.53 169.89-6.4 170.54-7.8L170.54-7.8 177.04-7.8Q176.34-5.45 174.71-3.53 173.09-1.6 170.71-0.5 168.34 0.6 165.34 0.6ZM165.39-20.2L165.39-20.2Q163.04-20.2 161.24-18.88 159.44-17.55 158.94-14.85L158.94-14.85 171.29-14.85Q171.14-17.3 169.49-18.75 167.84-20.2 165.39-20.2Z" opacity="1" transform="matrix(1,0,0,1,0,0)" fill="#085f63" class="undefined-text-0" data-fill-palette-color="primary" id="text-0"></path></svg></g></svg></g><g transform="matrix(1,0,0,1,0,101.87005824327926)"><svg viewBox="0 0 395.52 49.585135555171824" height="49.585135555171824" width="395.52"><g transform="matrix(1,0,0,1,0,0)"><svg width="395.52" viewBox="2.6 -35.85 289.52 36.300000000000004" height="49.585135555171824" data-palette-color="#49beb7"><path d="M2.6 0.15L2.6 0.15Q2.6-0.6 2.65-1.23 2.7-1.85 2.85-2.25L2.85-2.25Q4.2-2.35 4.95-2.78 5.7-3.2 6.03-4.25 6.35-5.3 6.35-7.3L6.35-7.3 6.35-27Q6.35-28.8 6.05-29.73 5.75-30.65 5-31.05 4.25-31.45 2.9-31.55L2.9-31.55Q2.75-32 2.7-32.65 2.65-33.3 2.65-33.95L2.65-33.95Q3.5-33.9 4.8-33.88 6.1-33.85 7.53-33.83 8.95-33.8 10.2-33.8L10.2-33.8Q11.55-33.8 13.03-33.85 14.5-33.9 16-33.9L16-33.9Q18.65-33.9 21.35-33.52 24.05-33.15 26.48-32.18 28.9-31.2 30.78-29.38 32.65-27.55 33.73-24.73 34.8-21.9 34.8-17.75L34.8-17.75Q34.8-13.7 33.8-10.8 32.8-7.9 31.15-5.95 29.5-4 27.45-2.8 25.4-1.6 23.28-1 21.15-0.4 19.23-0.2 17.3 0 15.95 0L15.95 0Q14.55 0 12.68 0 10.8 0 8.83 0.03 6.85 0.05 5.2 0.08 3.55 0.1 2.6 0.15ZM16.25-2.5L16.25-2.5Q18.9-2.5 21.18-3.15 23.45-3.8 25.2-5.43 26.95-7.05 27.93-9.88 28.9-12.7 28.9-17L28.9-17Q28.9-21 27.78-23.85 26.65-26.7 24.7-28.43 22.75-30.15 20.33-30.93 17.9-31.7 15.3-31.7L15.3-31.7Q14.25-31.7 13.03-31.53 11.8-31.35 11.4-31.05L11.4-31.05 11.85-32.5 11.85-7.3Q11.85-5.4 12.2-4.35 12.55-3.3 13.53-2.9 14.5-2.5 16.25-2.5ZM49.5 0.45L49.5 0.45Q45.75 0.45 43.32-1.15 40.9-2.75 39.67-5.45 38.45-8.15 38.45-11.4L38.45-11.4Q38.45-14.7 39.75-17.4 41.05-20.1 43.47-21.73 45.9-23.35 49.2-23.35L49.2-23.35Q52.55-23.35 54.6-21.95 56.65-20.55 57.67-18.2 58.7-15.85 58.85-12.9L58.85-12.9Q58.65-11.75 58-11L58-11Q57-11 55.27-11 53.55-11 51.42-10.98 49.3-10.95 47.07-10.88 44.85-10.8 42.9-10.7L42.9-10.7 42.9-13.45 53.2-13.45Q53.2-16.75 52.07-18.75 50.95-20.75 48.85-20.75L48.85-20.75Q47.65-20.75 46.55-20 45.45-19.25 44.75-17.48 44.05-15.7 44.05-12.55L44.05-12.55Q44.05-10.05 44.7-7.78 45.35-5.5 46.9-4.08 48.45-2.65 51.3-2.65L51.3-2.65Q52.95-2.65 54.57-3.35 56.2-4.05 57.45-5.35L57.45-5.35Q57.85-5.15 58.22-4.6 58.6-4.05 58.65-3.55L58.65-3.55Q56.9-1.4 54.62-0.48 52.35 0.45 49.5 0.45ZM71.6-21L66.3-10.6 66.3-15.8Q66.3-17.1 66.07-17.88 65.85-18.65 65.05-19.05 64.25-19.45 62.6-19.5L62.6-19.5Q62.6-20.1 62.7-20.65 62.8-21.2 63.05-21.65L63.05-21.65Q64.95-21.75 67.1-22.25 69.25-22.75 70.4-23.35L70.4-23.35Q70.9-23.15 71.25-22.65 71.6-22.15 71.6-21L71.6-21ZM86.7-14.95L86.7-6.6Q86.7-4.05 87.37-3.15 88.05-2.25 89.55-2.25L89.55-2.25Q89.7-1.75 89.75-1.2 89.8-0.65 89.8 0.15L89.8 0.15Q88.7 0.05 87.2 0.03 85.7 0 84.15 0L84.15 0Q83.1 0 81.92 0.03 80.75 0.05 79.7 0.08 78.65 0.1 77.85 0.15L77.85 0.15Q77.85-0.6 77.9-1.2 77.95-1.8 78.15-2.25L78.15-2.25Q79.8-2.25 80.6-3.2 81.4-4.15 81.4-6.7L81.4-6.7 81.4-13.65Q81.4-17.1 80.2-18.35 79-19.6 77-19.6L77-19.6Q75.75-19.6 74.5-18.75 73.25-17.9 72.42-16.1 71.6-14.3 71.6-11.35L71.6-11.35 71.6-6.6Q71.6-4.1 72.32-3.18 73.05-2.25 74.85-2.25L74.85-2.25Q75.05-1.75 75.1-1.18 75.15-0.6 75.15 0.15L75.15 0.15Q74.45 0.1 73.4 0.08 72.35 0.05 71.2 0.03 70.05 0 68.95 0L68.95 0Q67.9 0 66.72 0.03 65.55 0.05 64.45 0.08 63.35 0.1 62.6 0.15L62.6 0.15Q62.6-0.6 62.67-1.23 62.75-1.85 62.9-2.25L62.9-2.25Q64.85-2.25 65.57-3.18 66.3-4.1 66.3-6.6L66.3-6.6 66.3-15.8 71.6-21Q71.6-20.4 71.52-19.65 71.45-18.9 71.2-18.05L71.2-18.05Q71.4-18.4 71.6-18.8 71.8-19.2 72.15-19.65L72.15-19.65Q73.05-20.8 74.9-21.95 76.75-23.1 79.3-23.1L79.3-23.1Q81.25-23.1 82.95-22.33 84.65-21.55 85.67-19.78 86.7-18 86.7-14.95L86.7-14.95ZM102.24 0.45L102.24 0.45Q99.14 0.45 97.62-1.15 96.09-2.75 96.09-6.4L96.09-6.4 96.09-19.3Q95.34-19.55 94.52-19.73 93.69-19.9 92.49-19.95L92.49-19.95Q92.49-20.65 92.59-21.2 92.69-21.75 92.94-22.4L92.94-22.4 96.09-22.4 96.09-28.85Q97.29-29.1 98.47-29.7 99.64-30.3 100.44-31L100.44-31Q100.99-30.8 101.19-30.35 101.39-29.9 101.39-28.25L101.39-28.25 101.39-22.4 107.79-22.4Q107.79-21.8 107.69-21.15 107.59-20.5 107.34-19.9L107.34-19.9Q105.54-19.9 104.07-19.7 102.59-19.5 101.39-19.25L101.39-19.25 101.39-7.4Q101.39-5.65 101.72-4.58 102.04-3.5 102.67-3 103.29-2.5 104.19-2.5L104.19-2.5Q105.19-2.5 105.97-2.78 106.74-3.05 107.44-3.6L107.44-3.6Q108.09-2.8 108.19-1.7L108.19-1.7Q107.34-0.8 105.64-0.18 103.94 0.45 102.24 0.45ZM126.94 0.45L126.94 0.45Q126.34 0.2 125.99-0.48 125.64-1.15 125.64-2.5L125.64-2.5Q125.64-3 125.72-3.68 125.79-4.35 125.94-4.95L125.94-4.95 126.09-4.95Q125.89-4 125.32-3.05 124.74-2.1 123.89-1.35L123.89-1.35Q122.99-0.6 121.64-0.13 120.29 0.35 118.44 0.35L118.44 0.35Q115.24 0.35 113.52-1.07 111.79-2.5 111.79-5.05L111.79-5.05Q111.79-7 112.72-8.38 113.64-9.75 115.12-10.68 116.59-11.6 118.34-12.15 120.09-12.7 121.82-13.03 123.54-13.35 124.94-13.55L124.94-13.55Q124.94-15.45 124.87-16.55 124.79-17.65 124.57-18.32 124.34-19 123.89-19.5L123.89-19.5Q123.29-20.2 122.54-20.55 121.79-20.9 120.89-20.9L120.89-20.9Q119.29-20.9 118.39-19.93 117.49-18.95 117.09-17.63 116.69-16.3 116.59-15.15L116.59-15.15Q115.89-15.15 114.99-15.25 114.09-15.35 113.54-15.55L113.54-15.55Q113.64-16.85 113.62-18.4 113.59-19.95 113.29-21.15L113.29-21.15Q115.39-22.2 117.79-22.78 120.19-23.35 122.24-23.35L122.24-23.35Q124.39-23.35 125.84-22.8 127.29-22.25 128.09-21.35L128.09-21.35Q129.34-20.15 129.79-18.18 130.24-16.2 130.24-12.8L130.24-12.8 130.24-7.65Q130.24-6.2 130.47-5.35 130.69-4.5 131.34-4.13 131.99-3.75 133.29-3.7L133.29-3.7Q133.34-3.1 133.27-2.4 133.19-1.7 132.94-1.1L132.94-1.1Q131.54-1.05 129.89-0.65 128.24-0.25 126.94 0.45ZM120.14-2.8L120.14-2.8Q121.24-2.8 122.34-3.53 123.44-4.25 124.19-5.73 124.94-7.2 124.94-9.6L124.94-9.6 124.94-11.35Q123.64-11.15 122.29-10.85 120.94-10.55 119.82-10 118.69-9.45 118.02-8.55 117.34-7.65 117.34-6.15L117.34-6.15Q117.34-4.4 118.19-3.6 119.04-2.8 120.14-2.8ZM136.79 0.15L136.79 0.15Q136.79-0.45 136.84-1.1 136.89-1.75 137.04-2.25L137.04-2.25Q139.04-2.3 139.76-3.2 140.49-4.1 140.49-6.6L140.49-6.6 140.49-28.55Q140.49-29.7 140.24-30.45 139.99-31.2 139.19-31.6 138.39-32 136.74-32L136.74-32Q136.74-32.6 136.84-33.15 136.94-33.7 137.19-34.15L137.19-34.15Q138.24-34.15 139.74-34.4 141.24-34.65 142.56-35.05 143.89-35.45 144.54-35.85L144.54-35.85Q145.04-35.65 145.39-35.15 145.74-34.65 145.74-33.65L145.74-33.65 145.74-6.6Q145.74-4.1 146.41-3.2 147.09-2.3 148.74-2.25L148.74-2.25Q148.89-1.75 148.96-1.05 149.04-0.35 149.04 0.15L149.04 0.15Q148.19 0.1 147.19 0.08 146.19 0.05 145.09 0.03 143.99 0 142.94 0L142.94 0Q141.89 0 140.74 0.03 139.59 0.05 138.59 0.08 137.59 0.1 136.79 0.15ZM178.48 0.45L178.48 0.45Q173.73 0.45 170.13-1.78 166.53-4 164.46-7.98 162.38-11.95 162.38-17.15L162.38-17.15Q162.38-21.45 163.78-24.65 165.18-27.85 167.56-30 169.93-32.15 172.93-33.2 175.93-34.25 179.18-34.25L179.18-34.25Q182.23-34.25 184.88-33.6 187.53-32.95 190.23-31.65L190.23-31.65Q189.88-29.9 189.78-27.93 189.68-25.95 189.68-23.9L189.68-23.9Q189.03-23.65 188.28-23.53 187.53-23.4 186.68-23.4L186.68-23.4Q186.58-26.8 185.68-28.65 184.78-30.5 183.21-31.2 181.63-31.9 179.53-31.9L179.53-31.9Q176.58-31.9 174.46-30.78 172.33-29.65 171.01-27.78 169.68-25.9 169.06-23.5 168.43-21.1 168.43-18.5L168.43-18.5Q168.43-14.1 169.86-10.55 171.28-7 174.03-4.93 176.78-2.85 180.73-2.85L180.73-2.85Q183.03-2.85 185.43-3.6 187.83-4.35 189.88-5.65L189.88-5.65Q190.23-5.4 190.51-4.88 190.78-4.35 190.88-3.95L190.88-3.95Q188.08-1.75 185.21-0.65 182.33 0.45 178.48 0.45ZM194.83 0.15L194.83 0.15Q194.83-0.45 194.88-1.1 194.93-1.75 195.08-2.25L195.08-2.25Q197.08-2.3 197.81-3.2 198.53-4.1 198.53-6.6L198.53-6.6 198.53-28.55Q198.53-29.7 198.28-30.45 198.03-31.2 197.23-31.6 196.43-32 194.78-32L194.78-32Q194.78-32.6 194.88-33.15 194.98-33.7 195.23-34.15L195.23-34.15Q196.28-34.15 197.78-34.4 199.28-34.65 200.61-35.05 201.93-35.45 202.58-35.85L202.58-35.85Q203.08-35.65 203.43-35.15 203.78-34.65 203.78-33.65L203.78-33.65 203.78-6.6Q203.78-4.1 204.46-3.2 205.13-2.3 206.78-2.25L206.78-2.25Q206.93-1.75 207.01-1.05 207.08-0.35 207.08 0.15L207.08 0.15Q206.23 0.1 205.23 0.08 204.23 0.05 203.13 0.03 202.03 0 200.98 0L200.98 0Q199.93 0 198.78 0.03 197.63 0.05 196.63 0.08 195.63 0.1 194.83 0.15ZM210.48 0.15L210.48 0.15Q210.48-0.45 210.55-1.1 210.63-1.75 210.78-2.25L210.78-2.25Q212.78-2.3 213.48-3.2 214.18-4.1 214.18-6.6L214.18-6.6 214.18-15.95Q214.18-17.15 213.95-17.93 213.73-18.7 212.93-19.1 212.13-19.5 210.43-19.5L210.43-19.5Q210.43-20.1 210.55-20.65 210.68-21.2 210.93-21.65L210.93-21.65Q211.93-21.65 213.43-21.9 214.93-22.15 216.28-22.55 217.63-22.95 218.28-23.35L218.28-23.35Q218.78-23.15 219.13-22.65 219.48-22.15 219.48-21.15L219.48-21.15 219.48-6.6Q219.48-4.1 220.15-3.2 220.83-2.3 222.48-2.25L222.48-2.25Q222.63-1.75 222.68-1.05 222.73-0.35 222.73 0.15L222.73 0.15Q221.93 0.1 220.93 0.08 219.93 0.05 218.83 0.03 217.73 0 216.68 0L216.68 0Q215.58 0 214.45 0.03 213.33 0.05 212.3 0.08 211.28 0.1 210.48 0.15ZM216.38-28.5L216.38-28.5Q214.93-28.5 214-29.38 213.08-30.25 213.08-31.55L213.08-31.55Q213.08-33.05 214.08-33.95 215.08-34.85 216.43-34.85L216.43-34.85Q217.98-34.85 218.88-33.95 219.78-33.05 219.78-31.6L219.78-31.6Q219.78-30.35 218.8-29.43 217.83-28.5 216.38-28.5ZM235.28-21L229.98-10.6 229.98-15.8Q229.98-17.1 229.75-17.88 229.53-18.65 228.73-19.05 227.93-19.45 226.28-19.5L226.28-19.5Q226.28-20.1 226.38-20.65 226.48-21.2 226.73-21.65L226.73-21.65Q228.63-21.75 230.78-22.25 232.93-22.75 234.08-23.35L234.08-23.35Q234.58-23.15 234.93-22.65 235.28-22.15 235.28-21L235.28-21ZM250.38-14.95L250.38-6.6Q250.38-4.05 251.05-3.15 251.73-2.25 253.23-2.25L253.23-2.25Q253.38-1.75 253.43-1.2 253.48-0.65 253.48 0.15L253.48 0.15Q252.38 0.05 250.88 0.03 249.38 0 247.83 0L247.83 0Q246.78 0 245.6 0.03 244.43 0.05 243.38 0.08 242.33 0.1 241.53 0.15L241.53 0.15Q241.53-0.6 241.58-1.2 241.63-1.8 241.83-2.25L241.83-2.25Q243.48-2.25 244.28-3.2 245.08-4.15 245.08-6.7L245.08-6.7 245.08-13.65Q245.08-17.1 243.88-18.35 242.68-19.6 240.68-19.6L240.68-19.6Q239.43-19.6 238.18-18.75 236.93-17.9 236.1-16.1 235.28-14.3 235.28-11.35L235.28-11.35 235.28-6.6Q235.28-4.1 236-3.18 236.73-2.25 238.53-2.25L238.53-2.25Q238.73-1.75 238.78-1.18 238.83-0.6 238.83 0.15L238.83 0.15Q238.13 0.1 237.08 0.08 236.03 0.05 234.88 0.03 233.73 0 232.63 0L232.63 0Q231.58 0 230.4 0.03 229.23 0.05 228.13 0.08 227.03 0.1 226.28 0.15L226.28 0.15Q226.28-0.6 226.35-1.23 226.43-1.85 226.58-2.25L226.58-2.25Q228.53-2.25 229.25-3.18 229.98-4.1 229.98-6.6L229.98-6.6 229.98-15.8 235.28-21Q235.28-20.4 235.2-19.65 235.13-18.9 234.88-18.05L234.88-18.05Q235.08-18.4 235.28-18.8 235.48-19.2 235.83-19.65L235.83-19.65Q236.73-20.8 238.58-21.95 240.43-23.1 242.98-23.1L242.98-23.1Q244.93-23.1 246.63-22.33 248.33-21.55 249.35-19.78 250.38-18 250.38-14.95L250.38-14.95ZM257.07 0.15L257.07 0.15Q257.07-0.45 257.15-1.1 257.22-1.75 257.37-2.25L257.37-2.25Q259.37-2.3 260.07-3.2 260.77-4.1 260.77-6.6L260.77-6.6 260.77-15.95Q260.77-17.15 260.55-17.93 260.32-18.7 259.52-19.1 258.72-19.5 257.02-19.5L257.02-19.5Q257.02-20.1 257.15-20.65 257.27-21.2 257.52-21.65L257.52-21.65Q258.52-21.65 260.02-21.9 261.52-22.15 262.87-22.55 264.22-22.95 264.87-23.35L264.87-23.35Q265.37-23.15 265.72-22.65 266.07-22.15 266.07-21.15L266.07-21.15 266.07-6.6Q266.07-4.1 266.75-3.2 267.42-2.3 269.07-2.25L269.07-2.25Q269.22-1.75 269.27-1.05 269.32-0.35 269.32 0.15L269.32 0.15Q268.52 0.1 267.52 0.08 266.52 0.05 265.42 0.03 264.32 0 263.27 0L263.27 0Q262.17 0 261.05 0.03 259.92 0.05 258.9 0.08 257.87 0.1 257.07 0.15ZM262.97-28.5L262.97-28.5Q261.52-28.5 260.6-29.38 259.67-30.25 259.67-31.55L259.67-31.55Q259.67-33.05 260.67-33.95 261.67-34.85 263.02-34.85L263.02-34.85Q264.57-34.85 265.47-33.95 266.37-33.05 266.37-31.6L266.37-31.6Q266.37-30.35 265.4-29.43 264.42-28.5 262.97-28.5ZM292.12-3.6L292.12-3.6Q290.77-1.6 288.72-0.58 286.67 0.45 283.82 0.45L283.82 0.45Q281.02 0.45 278.57-0.88 276.12-2.2 274.55-4.83 272.97-7.45 272.97-11.35L272.97-11.35Q272.97-14.35 274.22-17.1 275.47-19.85 277.87-21.6 280.27-23.35 283.72-23.35L283.72-23.35Q286.17-23.35 288.12-22.8 290.07-22.25 291.52-21.15L291.52-21.15Q291.32-19.7 291.22-18.28 291.12-16.85 291.12-15.3L291.12-15.3Q290.62-15.05 289.82-14.95 289.02-14.85 288.37-14.85L288.37-14.85Q288.12-17.75 286.82-19.28 285.52-20.8 283.42-20.8L283.42-20.8Q281.12-20.8 279.75-18.53 278.37-16.25 278.37-12.1L278.37-12.1Q278.37-9.7 279.17-7.53 279.97-5.35 281.55-4 283.12-2.65 285.42-2.65L285.42-2.65Q287.02-2.65 288.42-3.35 289.82-4.05 290.87-5.3L290.87-5.3Q291.32-5.05 291.65-4.6 291.97-4.15 292.12-3.6Z" opacity="1" transform="matrix(1,0,0,1,0,0)" fill="#49beb7" class="undefined-text-1" data-fill-palette-color="secondary" id="text-1"></path></svg></g></svg></g></svg></g></svg></g><g><svg viewBox="0 0 209.3110778294594 209.31107782945944" height="209.31107782945944" width="209.3110778294594"><g><svg></svg></g><g id="icon-0"><svg viewBox="0 0 209.3110778294594 209.31107782945944" height="209.31107782945944" width="209.3110778294594"><g><path transform="scale(2.09311,2.09311)" d="M30 100c-16.569 0-30-13.431-30-30v-40c0-16.569 13.431-30 30-30h40c16.569 0 30 13.431 30 30v40c0 16.569-13.431 30-30 30z" fill="#49beb7" fill-rule="nonzero" stroke="none" stroke-width="1" stroke-linecap="butt" stroke-linejoin="miter" stroke-miterlimit="10" stroke-dasharray="" stroke-dashoffset="0" font-family="none" font-weight="none" font-size="none" text-anchor="none" style="mix-blend-mode: normal" data-fill-palette-color="accent"></path></g><g transform="matrix(1,0,0,1,66.76867811472971,55.16481552651602)"><svg viewBox="0 0 75.77372159999999 98.98144677642739" height="98.98144677642739" width="75.77372159999999"><g><svg xmlns="http://www.w3.org/2000/svg" xmlns:xlink="http://www.w3.org/1999/xlink" version="1.1" x="0" y="0" viewBox="14.943240776239007 0 98.06498139883368 128.1" style="enable-background:new 0 0 128 128;" xml:space="preserve" width="75.77372159999999" height="98.98144677642739" class="icon-g$-0" data-fill-palette-color="quaternary" id="g$-0"><path d="M95.7 24H90v-5.7c0-2.4-1.6-4.3-3.5-4.3h-5c-1.9 0-3.5 1.9-3.5 4.3V24h-6.1c-2.1 0-3.9 1.6-3.9 3.5v4c0 1.9 1.7 3.5 3.9 3.5H78v7.1c0 2.1 1.6 3.9 3.5 3.9h5c1.9 0 3.5-1.7 3.5-3.9V35h5.7c2.4 0 4.3-1.6 4.3-3.5v-4C100 25.6 98.1 24 95.7 24zM98 31.5c0 0.7-0.9 1.5-2.3 1.5H88v9.1c0 1-0.7 1.9-1.5 1.9h-5c-0.8 0-1.5-0.8-1.5-1.9V33h-8.1c-1 0-1.9-0.7-1.9-1.5v-4c0-0.8 0.9-1.5 1.9-1.5H80v-7.7c0-1.4 0.8-2.3 1.5-2.3h5c0.7 0 1.5 0.9 1.5 2.3V26h7.7c1.4 0 2.3 0.8 2.3 1.5V31.5z" fill="#ffffff" data-fill-palette-color="quaternary"></path><path d="M109 10.7c-2.4-4-6.7-7.2-10.9-9.2C95.8 0.5 93.2 0 90.6 0c-4.8 0-9.8 1.6-13.8 3.7-3.9 2.1-7.9 3-11.9 3-5.1 0-10.1-1.5-15-3.8-2.3-1.1-4.9-2.3-7.4-2.6-1.3-0.2-2.7-0.3-4.2-0.3-2.9 0-6 0.4-8.4 1.5-4.2 2-8.4 5.2-10.9 9.2-8.3 13.4-2.5 31.3 5.2 43.4 2.5 3.8 2.7 7.8 2.5 12.2-2.4 52 16.5 61.5 16.5 61.5 0.3 0.1 0.6 0.2 0.9 0.2 2.8 0 3-6.1 3-6.1 0.2-6 0.5-11.9 1.6-17.8 1.1-6.1 4-27.1 12.7-29.2 1.8-0.4 3.2-0.4 5 0 8.7 2 11.7 23.1 12.8 29.3 1.1 5.9 1.5 11.8 1.6 17.8 0 0 0.2 6.1 3 6.1 0.3 0 0.6-0.1 0.9-0.2 0 0 18.9-9.5 16.5-61.5-0.2-4.4 0-8.4 2.5-12.2C111.5 42.1 117.2 24.1 109 10.7zM100.4 52c-3.2 5-3.3 10.2-3.1 14.6 1.7 37.6-8 51.7-12.3 56 0-0.3-0.1-0.6-0.1-0.8-0.4-8.8-1.3-17.6-3.1-26.2-1.8-8.5-4-22.3-14.4-24.7-2.4-0.5-4.5-0.5-6.8 0-7.2 1.8-10.4 9.6-12.2 16-2.6 9.5-4.4 19.2-5 29.1-0.1 1.9-0.2 3.8-0.2 5.7 0 0.3 0 0.6-0.1 0.8-4.4-4.4-14.1-18.5-12.3-56 0.2-4.4 0.1-9.5-3.1-14.6-7.2-11.3-12.4-27.5-5.2-39.1 1.8-2.9 5.2-5.8 9.2-7.7 1.5-0.7 3.9-1.1 6.7-1.1 1.2 0 2.5 0.1 3.7 0.2 1.9 0.3 4.1 1.3 6.2 2.3 5.8 2.8 11.4 4.2 16.7 4.2 4.9 0 9.5-1.2 13.8-3.5 3.8-2 8.1-3.2 11.8-3.2 2.2 0 4.2 0.4 5.8 1.2 3.9 1.9 7.3 4.7 9.2 7.7C112.7 24.5 107.6 40.7 100.4 52z" fill="#ffffff" data-fill-palette-color="quaternary"></path><path d="M40.6 14.1c-0.2 0.1-16.4 7.6-8.3 26.3 0.2 0.4 0.5 0.6 0.9 0.6 0.1 0 0.3 0 0.4-0.1 0.5-0.2 0.7-0.8 0.5-1.3-7.3-16.9 6.7-23.4 7.3-23.7 0.5-0.2 0.7-0.8 0.5-1.3C41.7 14.1 41.1 13.9 40.6 14.1z" fill="#ffffff" data-fill-palette-color="quaternary"></path></svg></g></svg></g></svg></g></svg></g></svg></g><defs></defs></svg><rect width="395.52" height="132.6100162226326" fill="none" stroke="none" visibility="hidden"></rect></g></svg></g></svg>